#!OML:ASF I:\golf\golf\golf 2\Subject 1\2002-09-07\Subject1.ASF
:FULLY-SPECIFIED
:DEGREES
424
root -0.308221 17.9752 -4.28321 4.35952 -6.14211 -4.01825
lowerback 4.68423 1.88312 -2.55603
upperback 3.13381 2.41722 4.95679
thorax 0.289663 1.13829 6.47895
lowerneck -19.2925 -0.000485314 0.608301
upperneck 21.8022 1.35789 -6.05598
head 10.2112 -0.0591121 -2.05621
rclavicle 5.30755e-014 7.15625e-014
rhumerus -22.9069 -4.03724 -70.7933
rradius 41.2495
rwrist -18.2683
rhand -23.5041 10.067
rfingers 7.12502
rthumb 2.95629 -19.8922
lclavicle 5.30755e-014 7.15625e-014
lhumerus -21.5519 -23.3423 96.1871
lradius 32.7887
lwrist -16.9684
lhand -14.4031 28.2008
lfingers 7.12502
lthumb 11.7404 57.8518
rfemur -17.3449 -3.49634 27.6436
rtibia 29.7998
rfoot -11.3808 -9.98202
rtoes 5.90689
lfemur -24.0202 8.83279 -7.44907
ltibia 57.1521
lfoot -12.2064 -12.4916
ltoes -19.4677
425
root -0.305234 17.989 -4.29571 4.25556 -6.70924 -3.94111
lowerback 4.30656 1.91213 -2.58016
upperback 3.01834 2.45958 5.01935
thorax 0.371874 1.15947 6.56668
lowerneck -19.3186 0.122314 0.695604
upperneck 21.6665 1.50481 -6.09337
head 10.174 0.0128405 -2.06094
rclavicle -3.3197e-014 -5.80451e-014
rhumerus -23.2438 -4.12951 -70.6116
rradius 41.7605
rwrist -18.5119
rhand -23.6197 10.4873
rfingers 7.12502
rthumb 2.84464 -19.4735
lclavicle -3.3197e-014 -5.80451e-014
lhumerus -21.6959 -21.9439 96.09
lradius 33.0362
lwrist -15.4831
lhand -14.3941 28.5478
lfingers 7.12502
lthumb 11.7491 58.1982
rfemur -17.0748 -3.31395 27.5338
rtibia 29.4371
rfoot -11.2072 -9.61775
rtoes 5.80825
lfemur -23.3848 9.20761 -7.68016
ltibia 58.2196
lfoot -11.5666 -12.7206
ltoes -19.12
426
root -0.304932 17.9996 -4.31032 4.17509 -7.20904 -4.01807
lowerback 4.03411 1.9207 -2.44555
upperback 2.86728 2.48003 5.10023
thorax 0.366867 1.17429 6.57962
lowerneck -19.3624 0.278751 0.928569
upperneck 21.5297 1.67733 -6.22329
head 10.1427 0.0974365 -2.11957
rclavicle 3.97569e-016 -1.43125e-014
rhumerus -23.5303 -4.16773 -70.4968
rradius 42.1516
rwrist -18.4883
rhand -23.6605 10.6669
rfingers 7.12502
rthumb 2.80525 -19.2944
lclavicle 3.97569e-016 -1.43125e-014
lhumerus -21.8559 -20.604 95.9264
lradius 33.2068
lwrist -14.1935
lhand -15.8595 27.9724
lfingers 7.12502
lthumb 10.3357 57.6984
rfemur -16.8021 -3.12923 27.608
rtibia 29.0322
rfoot -10.997 -9.28329
rtoes 5.70574
lfemur -22.7684 9.58681 -7.71069
ltibia 59.1937
lfoot -10.7919 -12.9873
ltoes -19.622
427
root -0.305108 18.0086 -4.32775 4.12413 -7.6263 -4.08534
lowerback 3.85191 1.89939 -2.34412
upperback 2.71316 2.45915 5.19938
thorax 0.311887 1.16895 6.63008
lowerneck -19.7147 0.417793 1.0643
upperneck 21.5821 1.85538 -6.30203
head 10.2373 0.17428 -2.14836
rclavicle -3.97569e-015 -3.65764e-014
rhumerus -23.6084 -4.27319 -70.3942
rradius 42.3524
rwrist -18.0417
rhand -23.6853 10.9508
rfingers 7.12502
rthumb 2.78127 -19.0108
lclavicle -3.97569e-015 -3.65764e-014
lhumerus -21.8165 -19.282 95.7311
lradius 33.078
lwrist -13.1733
lhand -16.0323 27.605
lfingers 7.12502
lthumb 10.169 57.3392
rfemur -16.5801 -2.89331 27.6773
rtibia 28.6358
rfoot -10.7559 -9.07119
rtoes 5.44695
lfemur -22.1766 9.87905 -7.74387
ltibia 60.0558
lfoot -9.68237 -13.3606
ltoes -19.2818
428
root -0.301261 18.0185 -4.34715 4.11929 -8.0099 -4.03624
lowerback 3.57021 1.88544 -2.32142
upperback 2.61946 2.44357 5.26267
thorax 0.372867 1.16155 6.69228
lowerneck -20.1717 0.505019 1.0854
upperneck 21.5834 1.96841 -6.27934
head 10.3285 0.222964 -2.13034
rclavicle 5.4467e-014 -1.66979e-014
rhumerus -23.5705 -4.46526 -70.2947
rradius 42.5306
rwrist -17.2677
rhand -23.9154 11.2926
rfingers 7.12502
rthumb 2.55904 -18.6718
lclavicle 5.4467e-014 -1.66979e-014
lhumerus -21.4876 -18.2981 95.5528
lradius 32.5485
lwrist -12.2823
lhand -15.374 27.5651
lfingers 7.12502
lthumb 10.8041 57.2673
rfemur -16.4746 -2.78155 27.6093
rtibia 28.2838
rfoot -10.5265 -8.73988
rtoes 5.36914
lfemur -21.6204 10.0689 -7.96998
ltibia 60.7871
lfoot -8.48677 -13.6532
ltoes -19.1353
